# Blender 4.1.1
# www.blender.org
mtllib cardstand.mtl
o gamedisk
v 0.629232 -0.018418 -2.180132
v 0.629232 -0.014289 -2.245615
v 0.695979 -0.015115 -2.180091
v 0.629232 -0.032052 -0.837202
v 0.629232 -0.034528 -0.902767
v 0.695979 -0.031226 -0.902725
v 0.695979 0.049263 -2.179279
v 0.629232 0.050089 -2.244802
v 0.629232 0.052565 -2.179237
v 0.695979 0.033152 -0.901913
v 0.629232 0.036454 -0.901872
v 0.629232 0.032326 -0.836390
v -0.671983 -0.018418 -2.180132
v -0.738730 -0.015115 -2.180091
v -0.671983 -0.014289 -2.245615
v -0.738730 -0.031226 -0.902725
v -0.671983 -0.034528 -0.902767
v -0.671983 -0.032052 -0.837202
v -0.738730 0.049263 -2.179279
v -0.671983 0.052565 -2.179237
v -0.671983 0.050089 -2.244802
v -0.671983 0.032326 -0.836390
v -0.671983 0.036454 -0.901872
v -0.738730 0.033152 -0.901913
v -0.235439 -0.049413 -0.814658
v -0.235439 -0.049131 -0.837022
v -0.235439 0.045918 -0.813455
v -0.235439 0.046200 -0.835819
v 0.234599 -0.049413 -0.814658
v 0.234599 -0.049131 -0.837022
v 0.234599 0.045918 -0.813455
v 0.234599 0.046200 -0.835819
v 0.000000 -0.078554 -0.303453
v 0.000000 -0.072092 -0.815772
v 0.015880 -0.077204 -0.303436
v 0.015880 -0.070742 -0.815755
v 0.031149 -0.073205 -0.303385
v 0.031149 -0.066743 -0.815704
v 0.045221 -0.066711 -0.303303
v 0.045221 -0.060250 -0.815622
v 0.057556 -0.057973 -0.303193
v 0.057556 -0.051511 -0.815512
v 0.067678 -0.047325 -0.303059
v 0.067678 -0.040863 -0.815378
v 0.075200 -0.035176 -0.302905
v 0.075200 -0.028715 -0.815225
v 0.079832 -0.021994 -0.302739
v 0.079832 -0.015533 -0.815058
v 0.081396 -0.008286 -0.302566
v 0.081396 -0.001824 -0.814886
v 0.079832 0.005423 -0.302393
v 0.079832 0.011885 -0.814713
v 0.075200 0.018605 -0.302227
v 0.075200 0.025066 -0.814546
v 0.067678 0.030753 -0.302074
v 0.067678 0.037215 -0.814393
v 0.057556 0.041401 -0.301940
v 0.057556 0.047863 -0.814259
v 0.045221 0.050140 -0.301829
v 0.045221 0.056602 -0.814149
v 0.031149 0.056634 -0.301748
v 0.031149 0.063095 -0.814067
v 0.015880 0.060632 -0.301697
v 0.015880 0.067094 -0.814016
v 0.000000 0.061983 -0.301680
v 0.000000 0.068444 -0.813999
v -0.015880 0.060632 -0.301697
v -0.015880 0.067094 -0.814016
v -0.031149 0.056634 -0.301748
v -0.031149 0.063095 -0.814067
v -0.045221 0.050140 -0.301829
v -0.045221 0.056602 -0.814149
v -0.057556 0.041401 -0.301940
v -0.057556 0.047863 -0.814259
v -0.067678 0.030753 -0.302074
v -0.067678 0.037215 -0.814393
v -0.075200 0.018605 -0.302227
v -0.075200 0.025066 -0.814546
v -0.079832 0.005423 -0.302393
v -0.079832 0.011885 -0.814713
v -0.081396 -0.008286 -0.302566
v -0.081396 -0.001824 -0.814886
v -0.079832 -0.021994 -0.302739
v -0.079832 -0.015533 -0.815058
v -0.075200 -0.035176 -0.302905
v -0.075200 -0.028715 -0.815225
v -0.067678 -0.047325 -0.303059
v -0.067678 -0.040863 -0.815378
v -0.057556 -0.057973 -0.303193
v -0.057556 -0.051511 -0.815512
v -0.045221 -0.066711 -0.303303
v -0.045221 -0.060250 -0.815622
v -0.031149 -0.073205 -0.303385
v -0.031149 -0.066743 -0.815704
v -0.015880 -0.077204 -0.303436
v -0.015880 -0.070742 -0.815755
v 0.000000 -1.011937 -0.019341
v 0.195090 -0.992724 -0.019099
v 0.382683 -0.935823 -0.018381
v 0.555570 -0.843420 -0.017216
v 0.707107 -0.719067 -0.015647
v 0.831470 -0.567543 -0.013736
v 0.923880 -0.394670 -0.011556
v 0.980785 -0.207092 -0.009190
v 1.000000 -0.012017 -0.006730
v 0.980785 0.183058 -0.004269
v 0.923880 0.370636 -0.001904
v 0.831470 0.543509 0.000277
v 0.707107 0.695034 0.002188
v 0.555570 0.819387 0.003756
v 0.382683 0.911789 0.004921
v 0.195090 0.968691 0.005639
v 0.000000 0.987904 0.005881
v -0.195090 0.968691 0.005639
v -0.382683 0.911789 0.004921
v -0.555570 0.819387 0.003756
v -0.707107 0.695034 0.002188
v -0.831469 0.543509 0.000277
v -0.923880 0.370636 -0.001904
v -0.980785 0.183058 -0.004269
v -1.000000 -0.012017 -0.006730
v -0.980785 -0.207092 -0.009190
v -0.923880 -0.394670 -0.011556
v -0.831469 -0.567543 -0.013736
v -0.707107 -0.719067 -0.015647
v -0.555570 -0.843420 -0.017216
v -0.382683 -0.935823 -0.018381
v -0.195090 -0.992724 -0.019099
v 0.000000 -0.007663 -0.351900
v -0.235047 0.047661 -0.835758
v -0.235047 0.047954 -0.859014
v -0.235047 0.032929 -0.835944
v -0.235047 0.033223 -0.859200
v -0.184816 0.047661 -0.835758
v -0.184816 0.047954 -0.859014
v -0.184816 0.032929 -0.835944
v -0.184816 0.033223 -0.859200
v 0.184750 -0.034245 -0.836728
v 0.184750 -0.033952 -0.859985
v 0.184750 -0.048977 -0.836914
v 0.184750 -0.048684 -0.860170
v 0.234981 -0.034245 -0.836728
v 0.234981 -0.033952 -0.859985
v 0.234981 -0.048977 -0.836914
v 0.234981 -0.048684 -0.860170
v -0.235249 -0.032915 -0.836774
v -0.235249 -0.032622 -0.860031
v -0.235249 -0.047647 -0.836960
v -0.235249 -0.047354 -0.860216
v -0.185017 -0.032915 -0.836774
v -0.185017 -0.032622 -0.860031
v -0.185017 -0.047647 -0.836960
v -0.185017 -0.047354 -0.860216
v 0.182675 0.046239 -0.835558
v 0.182675 0.046532 -0.858815
v 0.182675 0.031507 -0.835744
v 0.182675 0.031800 -0.859001
v 0.232906 0.046239 -0.835558
v 0.232906 0.046532 -0.858815
v 0.232906 0.031507 -0.835744
v 0.232906 0.031800 -0.859001
vn 0.0247 -0.9990 -0.0377
vn 0.2554 -0.7208 -0.6444
vn 0.6275 -0.7299 -0.2710
vn 0.2554 -0.7368 0.6260
vn 0.0247 -0.9996 0.0125
vn 0.6275 -0.7366 0.2525
vn 0.6275 0.7366 -0.2525
vn 0.2554 0.7368 -0.6260
vn 0.0247 0.9996 -0.0125
vn 0.6275 0.7299 0.2710
vn 0.0247 0.9990 0.0377
vn 0.2554 0.7208 0.6444
vn -0.0247 -0.9990 -0.0377
vn -0.6275 -0.7300 -0.2710
vn -0.2554 -0.7208 -0.6444
vn -0.6275 -0.7365 0.2525
vn -0.0247 -0.9996 0.0125
vn -0.2554 -0.7368 0.6260
vn -0.6275 0.7365 -0.2525
vn -0.0247 0.9996 -0.0125
vn -0.2554 0.7368 -0.6260
vn -0.2554 0.7208 0.6444
vn -0.0247 0.9990 0.0377
vn -0.6275 0.7300 0.2710
vn 0.4976 0.7103 -0.4979
vn 0.4976 0.6975 0.5157
vn 0.4976 -0.6975 -0.5157
vn 0.4976 -0.7103 0.4979
vn -0.4976 0.7103 -0.4979
vn -0.4976 0.6975 0.5156
vn -0.4976 -0.6975 -0.5156
vn -0.4976 -0.7103 0.4979
vn -0.0000 -0.8378 0.5460
vn -0.0000 -0.8237 -0.5670
vn 0.1393 -0.8221 0.5521
vn 0.1393 -0.8079 -0.5727
vn 0.2735 -0.7754 0.5691
vn 0.2735 -0.7609 -0.5885
vn 0.3975 -0.6995 0.5939
vn 0.3975 -0.6842 -0.6114
vn 0.5065 -0.5968 0.6223
vn 0.5065 -0.5809 -0.6372
vn 0.5962 -0.4713 0.6500
vn 0.5962 -0.4547 -0.6617
vn 0.6629 -0.3276 0.6732
vn 0.6629 -0.3106 -0.6812
vn 0.7041 -0.1714 0.6891
vn 0.7041 -0.1540 -0.6932
vn 0.7180 -0.0088 0.6960
vn 0.7180 0.0088 -0.6960
vn 0.7041 0.1540 0.6932
vn 0.7041 0.1714 -0.6891
vn 0.6629 0.3105 0.6813
vn 0.6629 0.3276 -0.6732
vn 0.5962 0.4547 0.6616
vn 0.5962 0.4713 -0.6500
vn 0.5065 0.5809 0.6372
vn 0.5065 0.5968 -0.6223
vn 0.3975 0.6843 0.6114
vn 0.3975 0.6994 -0.5939
vn 0.2735 0.7608 0.5885
vn 0.2735 0.7755 -0.5691
vn 0.1393 0.8079 0.5726
vn 0.1393 0.8221 -0.5521
vn -0.0000 0.8237 0.5670
vn -0.0000 0.8378 -0.5460
vn -0.1393 0.8079 0.5726
vn -0.1393 0.8221 -0.5521
vn -0.2735 0.7608 0.5885
vn -0.2735 0.7755 -0.5691
vn -0.3975 0.6843 0.6113
vn -0.3975 0.6994 -0.5939
vn -0.5065 0.5809 0.6372
vn -0.5065 0.5968 -0.6223
vn -0.5962 0.4547 0.6617
vn -0.5962 0.4713 -0.6500
vn -0.6629 0.3105 0.6813
vn -0.6629 0.3276 -0.6732
vn -0.7041 0.1540 0.6932
vn -0.7041 0.1714 -0.6891
vn -0.7180 -0.0088 0.6960
vn -0.7180 0.0088 -0.6960
vn -0.7041 -0.1714 0.6891
vn -0.7041 -0.1540 -0.6932
vn -0.6629 -0.3276 0.6732
vn -0.6629 -0.3106 -0.6812
vn -0.5962 -0.4713 0.6500
vn -0.5962 -0.4547 -0.6617
vn -0.5065 -0.5968 0.6223
vn -0.5065 -0.5809 -0.6372
vn -0.3975 -0.6995 0.5939
vn -0.3975 -0.6842 -0.6114
vn -0.2735 -0.7754 0.5691
vn -0.2735 -0.7609 -0.5885
vn -0.1393 -0.8221 0.5521
vn -0.1393 -0.8079 -0.5727
vn -0.0000 -0.9977 0.0684
vn 0.1857 -0.9800 0.0716
vn 0.3663 -0.9270 0.0810
vn 0.5355 -0.8392 0.0950
vn 0.6864 -0.7184 0.1125
vn 0.8124 -0.5683 0.1305
vn 0.9073 -0.3941 0.1467
vn 0.9664 -0.2027 0.1584
vn 0.9864 -0.0021 0.1643
vn 0.9663 0.1986 0.1636
vn 0.9073 0.3903 0.1566
vn 0.8124 0.5649 0.1447
vn 0.6864 0.7154 0.1306
vn 0.5354 0.8365 0.1163
vn 0.3663 0.9246 0.1044
vn 0.1857 0.9779 0.0962
vn -0.0000 0.9956 0.0935
vn -0.1857 0.9779 0.0963
vn -0.3662 0.9246 0.1044
vn -0.5355 0.8365 0.1161
vn -0.6864 0.7154 0.1306
vn -0.8124 0.5649 0.1448
vn -0.9073 0.3903 0.1566
vn -0.9664 0.1986 0.1634
vn -0.9864 -0.0021 0.1643
vn -0.9663 -0.2027 0.1585
vn -0.9073 -0.3941 0.1467
vn -0.8124 -0.5683 0.1304
vn -0.6864 -0.7184 0.1125
vn -0.5354 -0.8392 0.0951
vn -0.3662 -0.9270 0.0810
vn -0.1857 -0.9800 0.0715
vn -0.0000 0.0126 -0.9999
vn -0.4976 0.6975 0.5157
vn -0.4976 -0.6975 -0.5157
vt 0.363369 0.511631
vt 0.136631 0.738369
vt 0.136631 0.511631
vt 0.613369 0.011631
vt 0.386631 0.238369
vt 0.386631 0.011631
vt 0.941352 0.878877
vt 0.058819 0.309016
vt 0.923444 0.307611
vt 0.863369 0.511631
vt 0.636631 0.738369
vt 0.636631 0.511631
vt 0.613369 0.511631
vt 0.386631 0.738369
vt 0.386631 0.511631
vt 0.613369 0.488369
vt 0.625000 0.488369
vt 0.613369 0.500000
vt 0.363369 0.500000
vt 0.375000 0.511631
vt 0.613369 0.750000
vt 0.625000 0.761631
vt 0.613369 0.761631
vt 0.375000 0.738369
vt 0.363369 0.750000
vt 0.363369 0.738369
vt 0.613369 0.250000
vt 0.613369 0.238369
vt 0.625000 0.238369
vt 0.125000 0.511631
vt 0.136631 0.500000
vt 0.613369 0.000000
vt 0.625000 0.011631
vt 0.136631 0.750000
vt 0.125000 0.738369
vt 0.386631 0.000000
vt 0.386631 0.761631
vt 0.613369 0.738369
vt 0.386631 0.261631
vt 0.613369 0.261631
vt 0.625000 0.988369
vt 0.625000 0.261631
vt 0.064034 0.879677
vt 0.947353 0.323261
vt 0.063261 0.324224
vt 0.055175 0.878491
vt 0.863369 0.738369
vt 0.386631 0.488369
vt 0.613369 0.988369
vt 0.939842 0.881316
vt 0.625000 0.000000
vt 0.375000 0.250000
vt 0.375000 0.000000
vt 0.625000 0.250000
vt 0.375000 0.500000
vt 0.625000 0.500000
vt 0.375000 0.750000
vt 0.625000 0.750000
vt 0.375000 1.000000
vt 0.125000 0.750000
vt 0.125000 0.500000
vt 0.875000 0.500000
vt 1.000000 1.000000
vt 0.968750 0.500000
vt 1.000000 0.500000
vt 0.968750 1.000000
vt 0.937500 0.500000
vt 0.937500 1.000000
vt 0.906250 0.500000
vt 0.906250 1.000000
vt 0.875000 1.000000
vt 0.843750 0.500000
vt 0.843750 1.000000
vt 0.812500 0.500000
vt 0.812500 1.000000
vt 0.781250 0.500000
vt 0.781250 1.000000
vt 0.750000 0.500000
vt 0.750000 1.000000
vt 0.718750 0.500000
vt 0.718750 1.000000
vt 0.687500 0.500000
vt 0.656250 1.000000
vt 0.656250 0.500000
vt 0.625000 1.000000
vt 0.593750 0.500000
vt 0.593750 1.000000
vt 0.562500 0.500000
vt 0.562500 1.000000
vt 0.531250 0.500000
vt 0.531250 1.000000
vt 0.500000 0.500000
vt 0.500000 1.000000
vt 0.468750 0.500000
vt 0.468750 1.000000
vt 0.437500 0.500000
vt 0.437500 1.000000
vt 0.406250 0.500000
vt 0.406250 1.000000
vt 0.343750 0.500000
vt 0.343750 1.000000
vt 0.312500 0.500000
vt 0.312500 1.000000
vt 0.281250 0.500000
vt 0.281250 1.000000
vt 0.250000 0.500000
vt 0.250000 1.000000
vt 0.218750 0.500000
vt 0.218750 1.000000
vt 0.187500 0.500000
vt 0.187500 1.000000
vt 0.156250 0.500000
vt 0.156250 1.000000
vt 0.125000 1.000000
vt 0.093750 0.500000
vt 0.093750 1.000000
vt 0.062500 0.500000
vt 0.158156 0.028269
vt 0.471731 0.158156
vt 0.341844 0.471731
vt 0.062500 1.000000
vt 0.031250 0.500000
vt 0.031250 1.000000
vt 0.000000 0.500000
vt 0.796822 0.014612
vt 0.514612 0.203178
vt 0.703178 0.485388
vt 0.250000 0.490000
vt 0.250000 0.250000
vt 0.296822 0.485388
vt 0.383337 0.449553
vt 0.419706 0.419706
vt 0.449553 0.383337
vt 0.471731 0.341844
vt 0.485388 0.296822
vt 0.490000 0.250000
vt 0.485388 0.203178
vt 0.449553 0.116663
vt 0.419706 0.080294
vt 0.383337 0.050447
vt 0.341844 0.028269
vt 0.296822 0.014612
vt 0.250000 0.010000
vt 0.203178 0.014612
vt 0.116663 0.050447
vt 0.080294 0.080294
vt 0.050447 0.116663
vt 0.028269 0.158156
vt 0.014612 0.203178
vt 0.010000 0.250000
vt 0.014612 0.296822
vt 0.028269 0.341844
vt 0.050447 0.383337
vt 0.080294 0.419706
vt 0.116663 0.449553
vt 0.158156 0.471731
vt 0.203178 0.485388
vt 0.875000 0.750000
vt 0.687500 1.000000
vt 0.000000 1.000000
vt 0.750000 0.490000
vt 0.796822 0.485388
vt 0.841844 0.471731
vt 0.883337 0.449553
vt 0.919706 0.419706
vt 0.949553 0.383337
vt 0.971731 0.341844
vt 0.985388 0.296822
vt 0.990000 0.250000
vt 0.985388 0.203178
vt 0.971731 0.158156
vt 0.949553 0.116663
vt 0.919706 0.080294
vt 0.883337 0.050447
vt 0.841844 0.028269
vt 0.750000 0.010000
vt 0.703178 0.014612
vt 0.658156 0.028269
vt 0.616663 0.050447
vt 0.580294 0.080294
vt 0.550447 0.116663
vt 0.528269 0.158156
vt 0.510000 0.250000
vt 0.514612 0.296822
vt 0.528269 0.341844
vt 0.550447 0.383337
vt 0.580294 0.419706
vt 0.616663 0.449553
vt 0.658156 0.471731
s 1
g gamedisk_Edge
usemtl Edge
f 4/1/4 22/2/22 18/3/18
f 19/4/19 16/5/16 24/6/24
f 15/10/15 8/11/8 2/12/2
f 3/13/3 10/14/10 6/15/6
f 1/16/1 2/17/2 3/18/3
f 4/1/4 5/19/5 6/20/6
f 7/21/7 8/22/8 9/23/9
f 10/24/10 11/25/11 12/26/12
f 13/27/13 14/28/14 15/29/15
f 16/30/16 17/31/17 18/3/18
f 19/4/19 20/32/20 21/33/21
f 22/2/22 23/34/23 24/35/24
f 22/2/22 16/30/16 18/3/18
f 18/3/18 5/19/5 4/1/4
f 6/15/6 1/16/1 3/13/3
f 20/32/20 24/6/24 23/36/23
f 11/37/11 7/38/7 9/23/9
f 17/39/17 14/28/14 13/40/13
f 21/41/21 9/23/9 8/22/8
f 8/11/8 3/13/3 2/12/2
f 12/26/12 23/34/23 22/2/22
f 15/29/15 19/4/19 21/33/21
f 2/17/2 13/40/13 15/42/15
f 4/1/4 10/14/10 12/26/12
f 4/1/4 12/26/12 22/2/22
f 19/4/19 14/28/14 16/5/16
f 15/10/15 21/47/21 8/11/8
f 3/13/3 7/38/7 10/14/10
f 22/2/22 24/35/24 16/30/16
f 18/3/18 17/31/17 5/19/5
f 6/15/6 5/48/5 1/16/1
f 20/32/20 19/4/19 24/6/24
f 11/37/11 10/14/10 7/38/7
f 17/39/17 16/5/16 14/28/14
f 21/41/21 20/49/20 9/23/9
f 8/11/8 7/38/7 3/13/3
f 12/26/12 11/25/11 23/34/23
f 15/29/15 14/28/14 19/4/19
f 2/17/2 1/16/1 13/40/13
f 4/1/4 6/15/6 10/14/10
g gamedisk_Frontface
usemtl Frontface
f 9/7/9 23/8/23 11/9/11
f 13/43/13 5/44/5 17/45/17
f 9/7/9 20/46/20 23/8/23
f 13/43/13 1/50/1 5/44/5
g gamedisk_Dark
usemtl Dark
f 26/51/26 27/52/27 25/53/25
f 28/54/28 31/55/31 27/52/27
f 32/56/32 29/57/29 31/55/31
f 30/58/30 25/59/25 29/57/29
f 31/55/31 25/60/25 27/61/27
f 28/62/28 30/58/30 32/56/32
f 34/63/34 35/64/35 33/65/33
f 36/66/36 37/67/37 35/64/35
f 38/68/38 39/69/39 37/67/37
f 40/70/40 41/62/41 39/69/39
f 42/71/42 43/72/43 41/62/41
f 44/73/44 45/74/45 43/72/43
f 46/75/46 47/76/47 45/74/45
f 48/77/48 49/78/49 47/76/47
f 50/79/50 51/80/51 49/78/49
f 52/81/52 53/82/53 51/80/51
f 53/82/53 56/83/56 55/84/55
f 56/83/56 57/56/57 55/84/55
f 58/85/58 59/86/59 57/56/57
f 60/87/60 61/88/61 59/86/59
f 62/89/62 63/90/63 61/88/61
f 64/91/64 65/92/65 63/90/63
f 66/93/66 67/94/67 65/92/65
f 68/95/68 69/96/69 67/94/67
f 70/97/70 71/98/71 69/96/69
f 72/99/72 73/55/73 71/98/71
f 74/59/74 75/100/75 73/55/73
f 76/101/76 77/102/77 75/100/75
f 78/103/78 79/104/79 77/102/77
f 80/105/80 81/106/81 79/104/79
f 82/107/82 83/108/83 81/106/81
f 84/109/84 85/110/85 83/108/83
f 86/111/86 87/112/87 85/110/85
f 88/113/88 89/61/89 87/112/87
f 90/114/90 91/115/91 89/61/89
f 92/116/92 93/117/93 91/115/91
f 70/118/70 54/119/54 38/120/38
f 94/121/94 95/122/95 93/117/93
f 96/123/96 33/124/33 95/122/95
f 63/125/63 79/126/79 95/127/95
f 97/128/97 129/129/129 98/130/98
f 98/130/98 129/129/129 99/120/99
f 99/120/99 129/129/129 100/131/100
f 100/131/100 129/129/129 101/132/101
f 101/132/101 129/129/129 102/133/102
f 102/133/102 129/129/129 103/134/103
f 103/134/103 129/129/129 104/135/104
f 104/135/104 129/129/129 105/136/105
f 105/136/105 129/129/129 106/137/106
f 106/137/106 129/129/129 107/119/107
f 107/119/107 129/129/129 108/138/108
f 108/138/108 129/129/129 109/139/109
f 109/139/109 129/129/129 110/140/110
f 110/140/110 129/129/129 111/141/111
f 111/141/111 129/129/129 112/142/112
f 112/142/112 129/129/129 113/143/113
f 113/143/113 129/129/129 114/144/114
f 114/144/114 129/129/129 115/118/115
f 115/118/115 129/129/129 116/145/116
f 116/145/116 129/129/129 117/146/117
f 117/146/117 129/129/129 118/147/118
f 118/147/118 129/129/129 119/148/119
f 119/148/119 129/129/129 120/149/120
f 120/149/120 129/129/129 121/150/121
f 121/150/121 129/129/129 122/151/122
f 122/151/122 129/129/129 123/152/123
f 123/152/123 129/129/129 124/153/124
f 124/153/124 129/129/129 125/154/125
f 125/154/125 129/129/129 126/155/126
f 126/155/126 129/129/129 127/156/127
f 112/125/112 120/126/120 128/127/128
f 127/156/127 129/129/129 128/157/128
f 128/157/128 129/129/129 97/128/97
f 131/51/29 132/52/32 130/53/130
f 133/54/131 136/55/28 132/52/32
f 137/56/27 134/57/26 136/55/28
f 135/58/25 130/59/130 134/57/26
f 136/55/28 130/60/130 132/61/32
f 133/62/131 135/58/25 137/56/27
f 138/53/130 141/54/131 140/52/32
f 141/54/131 144/55/28 140/52/32
f 145/56/27 142/57/26 144/55/28
f 143/58/25 138/59/130 142/57/26
f 144/55/28 138/60/130 140/61/32
f 141/62/131 143/58/25 145/56/27
f 147/51/29 148/52/32 146/53/130
f 149/54/131 152/55/28 148/52/32
f 153/56/27 150/57/26 152/55/28
f 151/58/25 146/59/130 150/57/26
f 152/55/28 146/60/130 148/61/32
f 149/62/131 151/58/25 153/56/27
f 154/53/130 157/54/131 156/52/32
f 157/54/131 160/55/28 156/52/32
f 161/56/27 158/57/26 160/55/28
f 159/58/25 154/59/130 158/57/26
f 160/55/28 154/60/130 156/61/32
f 157/62/131 159/58/25 161/56/27
f 26/51/26 28/54/28 27/52/27
f 28/54/28 32/56/32 31/55/31
f 32/56/32 30/58/30 29/57/29
f 30/58/30 26/85/26 25/59/25
f 31/55/31 29/57/29 25/60/25
f 28/62/28 26/158/26 30/58/30
f 34/63/34 36/66/36 35/64/35
f 36/66/36 38/68/38 37/67/37
f 38/68/38 40/70/40 39/69/39
f 40/70/40 42/71/42 41/62/41
f 42/71/42 44/73/44 43/72/43
f 44/73/44 46/75/46 45/74/45
f 46/75/46 48/77/48 47/76/47
f 48/77/48 50/79/50 49/78/49
f 50/79/50 52/81/52 51/80/51
f 52/81/52 54/159/54 53/82/53
f 53/82/53 54/159/54 56/83/56
f 56/83/56 58/85/58 57/56/57
f 58/85/58 60/87/60 59/86/59
f 60/87/60 62/89/62 61/88/61
f 62/89/62 64/91/64 63/90/63
f 64/91/64 66/93/66 65/92/65
f 66/93/66 68/95/68 67/94/67
f 68/95/68 70/97/70 69/96/69
f 70/97/70 72/99/72 71/98/71
f 72/99/72 74/59/74 73/55/73
f 74/59/74 76/101/76 75/100/75
f 76/101/76 78/103/78 77/102/77
f 78/103/78 80/105/80 79/104/79
f 80/105/80 82/107/82 81/106/81
f 82/107/82 84/109/84 83/108/83
f 84/109/84 86/111/86 85/110/85
f 86/111/86 88/113/88 87/112/87
f 88/113/88 90/114/90 89/61/89
f 90/114/90 92/116/92 91/115/91
f 92/116/92 94/121/94 93/117/93
f 38/120/38 36/130/36 34/128/34
f 34/128/34 96/157/96 94/156/94
f 94/156/94 92/155/92 90/154/90
f 90/154/90 88/153/88 86/152/86
f 86/152/86 84/151/84 82/150/82
f 82/150/82 80/149/80 78/148/78
f 78/148/78 76/147/76 74/146/74
f 74/146/74 72/145/72 70/118/70
f 70/118/70 68/144/68 66/143/66
f 66/143/66 64/142/64 62/141/62
f 62/141/62 60/140/60 58/139/58
f 58/139/58 56/138/56 54/119/54
f 54/119/54 52/137/52 50/136/50
f 50/136/50 48/135/48 46/134/46
f 46/134/46 44/133/44 42/132/42
f 42/132/42 40/131/40 38/120/38
f 38/120/38 34/128/34 94/156/94
f 94/156/94 90/154/90 86/152/86
f 86/152/86 82/150/82 78/148/78
f 78/148/78 74/146/74 70/118/70
f 70/118/70 66/143/66 62/141/62
f 62/141/62 58/139/58 54/119/54
f 54/119/54 50/136/50 46/134/46
f 46/134/46 42/132/42 38/120/38
f 38/120/38 94/156/94 86/152/86
f 86/152/86 78/148/78 70/118/70
f 70/118/70 62/141/62 54/119/54
f 54/119/54 46/134/46 38/120/38
f 38/120/38 86/152/86 70/118/70
f 94/121/94 96/123/96 95/122/95
f 96/123/96 34/160/34 33/124/33
f 95/127/95 33/161/33 35/162/35
f 35/162/35 37/163/37 39/164/39
f 39/164/39 41/165/41 43/166/43
f 43/166/43 45/167/45 47/168/47
f 47/168/47 49/169/49 51/170/51
f 51/170/51 53/171/53 55/172/55
f 55/172/55 57/173/57 59/174/59
f 59/174/59 61/175/61 63/125/63
f 63/125/63 65/176/65 67/177/67
f 67/177/67 69/178/69 71/179/71
f 71/179/71 73/180/73 75/181/75
f 75/181/75 77/182/77 79/126/79
f 79/126/79 81/183/81 83/184/83
f 83/184/83 85/185/85 87/186/87
f 87/186/87 89/187/89 91/188/91
f 91/188/91 93/189/93 95/127/95
f 95/127/95 35/162/35 39/164/39
f 39/164/39 43/166/43 47/168/47
f 47/168/47 51/170/51 55/172/55
f 55/172/55 59/174/59 63/125/63
f 63/125/63 67/177/67 71/179/71
f 71/179/71 75/181/75 79/126/79
f 79/126/79 83/184/83 87/186/87
f 87/186/87 91/188/91 95/127/95
f 95/127/95 39/164/39 47/168/47
f 47/168/47 55/172/55 63/125/63
f 63/125/63 71/179/71 79/126/79
f 79/126/79 87/186/87 95/127/95
f 95/127/95 47/168/47 63/125/63
f 128/127/128 97/161/97 98/162/98
f 98/162/98 99/163/99 100/164/100
f 100/164/100 101/165/101 102/166/102
f 102/166/102 103/167/103 104/168/104
f 104/168/104 105/169/105 106/170/106
f 106/170/106 107/171/107 108/172/108
f 108/172/108 109/173/109 110/174/110
f 110/174/110 111/175/111 112/125/112
f 112/125/112 113/176/113 114/177/114
f 114/177/114 115/178/115 116/179/116
f 116/179/116 117/180/117 118/181/118
f 118/181/118 119/182/119 120/126/120
f 120/126/120 121/183/121 122/184/122
f 122/184/122 123/185/123 124/186/124
f 124/186/124 125/187/125 126/188/126
f 126/188/126 127/189/127 128/127/128
f 128/127/128 98/162/98 100/164/100
f 100/164/100 102/166/102 104/168/104
f 104/168/104 106/170/106 108/172/108
f 108/172/108 110/174/110 112/125/112
f 112/125/112 114/177/114 116/179/116
f 116/179/116 118/181/118 120/126/120
f 120/126/120 122/184/122 124/186/124
f 124/186/124 126/188/126 128/127/128
f 128/127/128 100/164/100 104/168/104
f 104/168/104 108/172/108 112/125/112
f 112/125/112 116/179/116 120/126/120
f 120/126/120 124/186/124 128/127/128
f 128/127/128 104/168/104 112/125/112
f 131/51/29 133/54/131 132/52/32
f 133/54/131 137/56/27 136/55/28
f 137/56/27 135/58/25 134/57/26
f 135/58/25 131/85/29 130/59/130
f 136/55/28 134/57/26 130/60/130
f 133/62/131 131/158/29 135/58/25
f 138/53/130 139/51/29 141/54/131
f 141/54/131 145/56/27 144/55/28
f 145/56/27 143/58/25 142/57/26
f 143/58/25 139/85/29 138/59/130
f 144/55/28 142/57/26 138/60/130
f 141/62/131 139/158/29 143/58/25
f 147/51/29 149/54/131 148/52/32
f 149/54/131 153/56/27 152/55/28
f 153/56/27 151/58/25 150/57/26
f 151/58/25 147/85/29 146/59/130
f 152/55/28 150/57/26 146/60/130
f 149/62/131 147/158/29 151/58/25
f 154/53/130 155/51/29 157/54/131
f 157/54/131 161/56/27 160/55/28
f 161/56/27 159/58/25 158/57/26
f 159/58/25 155/85/29 154/59/130
f 160/55/28 158/57/26 154/60/130
f 157/62/131 155/158/29 159/58/25
