# Blender 4.4.3
# www.blender.org
mtllib crack_1.mtl
o Plane
v -1.000000 1.000000 -0.040000
v -1.000000 1.000000 -4.000000
v -1.000000 -1.000001 -0.040000
v 1.000000 0.999999 -0.040000
v -1.000000 -1.000001 -4.000000
v 0.999999 1.000001 -4.000000
v 1.000000 0.199254 -0.040000
v 0.192278 -1.000001 -0.040000
v 0.476985 0.352979 -0.040000
v 0.165278 -0.170418 -0.040000
v 0.579619 -0.743634 -0.040000
v 0.476985 0.352979 -4.000000
v 0.165278 -0.170418 -4.000000
v 0.579619 -0.743634 -4.000000
v 1.000000 0.199255 -4.000000
v 0.192278 -1.000001 -4.000000
vn -0.0000 1.0000 -0.0000
vn -1.0000 -0.0000 -0.0000
vn -0.0000 -0.0000 -1.0000
vn -0.0000 -0.0000 1.0000
vn 0.5519 -0.8339 -0.0000
vn 0.8104 0.5858 -0.0000
vn 0.8592 -0.5117 -0.0000
vn -0.2820 -0.9594 -0.0000
vn -0.0000 -1.0000 -0.0000
vn 1.0000 -0.0000 -0.0000
vt 0.333333 1.000000
vt 0.000000 1.000000
vt 0.000000 0.666667
vt 0.194213 0.804930
vt 0.263270 0.709394
vt 0.246164 0.892163
vt 0.198713 0.666667
vt 0.000000 0.000000
vt 0.333333 0.866543
s 0
g Plane_plate_back
usemtl plate_back
f 2/2/3 13/4/3 14/5/3
f 16/7/3 5/3/3 2/2/3
f 2/2/3 6/1/3 15/9/3
f 2/2/3 15/9/3 12/6/3
f 14/5/3 16/7/3 2/2/3
f 2/2/3 12/6/3 13/4/3
g Plane_plate_edge
usemtl plate_edge
f 6/1/1 1/2/1 4/1/1
f 2/2/2 3/3/2 1/2/2
f 8/7/5 14/8/5 11/5/5
f 13/4/6 11/5/6 14/8/6
f 12/6/7 10/4/7 13/4/7
f 12/6/8 7/9/8 9/6/8
f 3/3/9 16/7/9 8/7/9
f 4/1/10 15/8/10 6/1/10
f 6/1/1 2/2/1 1/2/1
f 2/2/2 5/3/2 3/3/2
f 8/7/5 16/7/5 14/8/5
f 13/4/6 10/4/6 11/5/6
f 12/6/7 9/6/7 10/4/7
f 12/6/8 15/9/8 7/9/8
f 3/3/9 5/3/9 16/7/9
f 4/1/10 7/9/10 15/8/10
g Plane_plate_front
usemtl plate_front
f 10/4/4 9/6/4 1/2/4
f 1/2/4 3/3/4 8/7/4
f 8/7/4 11/5/4 10/4/4
f 9/6/4 7/9/4 4/1/4
f 1/2/4 8/7/4 10/4/4
f 9/6/4 4/1/4 1/2/4
