# Blender 4.4.3
# www.blender.org
mtllib open_cube.mtl
o Cube
v -1.000000 -1.000000 1.000000
v -1.000000 1.000000 1.000000
v -1.000000 -1.000000 -1.000000
v -1.000000 1.000000 -1.000000
v 1.000000 -1.000000 1.000000
v 1.000000 1.000000 1.000000
v 1.000000 -1.000000 -1.000000
v 1.000000 1.000000 -1.000000
vn -1.0000 -0.0000 -0.0000
vn -0.0000 -0.0000 -1.0000
vn -0.0000 -0.0000 1.0000
vn -0.0000 -1.0000 -0.0000
vn -0.0000 1.0000 -0.0000
vt 0.787550 0.225270
vt 0.011650 1.001169
vt 0.011650 0.225270
vt 0.625000 0.250000
vt 0.375000 0.500000
vt 0.375000 0.250000
vt 0.625000 0.750000
vt 0.375000 1.000000
vt 0.375000 0.750000
vt 0.125000 0.750000
vt 0.125000 0.500000
vt 0.957031 0.703125
vt 0.707031 0.953125
vt 0.707031 0.703125
vt 0.787550 1.001169
vt 0.625000 0.500000
vt 0.625000 1.000000
vt 0.957031 0.953125
s 1
g Cube_InsideBackground
usemtl InsideBackground
f 2/1/1 3/2/1 1/3/1
f 2/1/1 4/15/1 3/2/1
g Cube_Other
usemtl Other
f 4/4/2 7/5/2 3/6/2
f 6/7/3 1/8/3 5/9/3
f 7/5/4 1/10/4 3/11/4
f 4/12/5 6/13/5 8/14/5
f 4/4/2 8/16/2 7/5/2
f 6/7/3 2/17/3 1/8/3
f 7/5/4 5/9/4 1/10/4
f 4/12/5 2/18/5 6/13/5
